<svg width="71" height="123" viewBox="0 0 71 123" fill="none" xmlns="http://www.w3.org/2000/svg">
<g id="THJ_Homepage_OPT1">
<g id="queens 1">
<g id="Group 73">
<g id="Clip path group">
<mask id="mask0_24_47" style="mask-type:luminance" maskUnits="userSpaceOnUse" x="0" y="0" width="71" height="123">
<g id="clip-path">
<path id="Path 15" d="M0 122.616H70.57V0H0V122.616Z" fill="white"/>
</g>
</mask>
<g mask="url(#mask0_24_47)">
<g id="Group 15">
<g id="Group 1">
<path id="Path 1" d="M57.129 12.8856C57.4142 12.8715 57.684 12.7518 57.8859 12.5498C58.0877 12.3478 58.2072 12.0778 58.221 11.7926C58.2045 11.5136 58.0824 11.2514 57.8796 11.0592C57.6768 10.867 57.4084 10.7591 57.129 10.7576C56.9922 10.7545 56.8561 10.7791 56.7291 10.83C56.602 10.8808 56.4866 10.957 56.3898 11.0537C56.293 11.1504 56.2168 11.2658 56.1657 11.3927C56.1147 11.5197 56.09 11.6558 56.093 11.7926C56.0889 11.9325 56.1124 12.0718 56.1623 12.2026C56.2122 12.3333 56.2875 12.4529 56.3838 12.5545C56.48 12.6561 56.5954 12.7376 56.7233 12.7944C56.8512 12.8512 56.9891 12.8822 57.129 12.8856Z" fill="black"/>
</g>
<g id="Group 2">
<path id="Path 2" d="M54.425 11.5037C54.7119 11.5014 54.9872 11.3905 55.1954 11.1932C55.4036 10.9959 55.5293 10.727 55.547 10.4407C55.5261 10.1527 55.4003 9.88236 55.1936 9.68078C54.9869 9.4792 54.7134 9.36034 54.425 9.34668C54.1476 9.36841 53.8882 9.49235 53.6969 9.69447C53.5057 9.89659 53.3963 10.1625 53.39 10.4407C53.3929 10.7169 53.502 10.9814 53.6947 11.1794C53.8875 11.3773 54.149 11.4934 54.425 11.5037Z" fill="black"/>
</g>
<g id="Group 3">
<path id="Path 3" d="M51.694 10.3253C51.9821 10.3204 52.257 10.2038 52.4608 10.0001C52.6645 9.79635 52.7811 9.52142 52.786 9.23333C52.7743 8.95259 52.6538 8.68743 52.45 8.49404C52.2461 8.30065 51.975 8.19423 51.694 8.19733C51.5592 8.19714 51.4257 8.22402 51.3015 8.27637C51.1773 8.32872 51.0649 8.40548 50.9709 8.50209C50.8769 8.59871 50.8032 8.71322 50.7543 8.83882C50.7053 8.96443 50.6821 9.09859 50.686 9.23333C50.679 9.37156 50.6997 9.5098 50.7468 9.63994C50.794 9.77007 50.8666 9.88949 50.9605 9.9912C51.0544 10.0929 51.1676 10.1748 51.2936 10.2322C51.4195 10.2896 51.5557 10.3212 51.694 10.3253Z" fill="black"/>
</g>
<g id="Group 4">
<path id="Path 4" d="M48.9029 9.60624C49.1839 9.59455 49.4492 9.47388 49.6426 9.26982C49.836 9.06576 49.9423 8.79437 49.9389 8.51324C49.9411 8.23522 49.8335 7.96756 49.6396 7.76836C49.4456 7.56917 49.1809 7.45449 48.9029 7.44924C48.6176 7.4476 48.343 7.55826 48.1385 7.75733C47.934 7.9564 47.816 8.22791 47.8099 8.51324C47.8146 8.80167 47.9312 9.07699 48.1352 9.28098C48.3392 9.48496 48.6145 9.6016 48.9029 9.60624Z" fill="black"/>
</g>
<g id="Group 5">
<path id="Path 5" d="M34.179 29.8822H56.209L60.494 17.5442L57.503 19.0682L57.303 20.9682C56.987 20.3352 56.296 19.1562 55.462 19.1852C53.219 19.1562 53.334 22.2912 54.081 24.1312H55.117C55.146 23.2682 54.744 21.9462 55.663 21.9462C56.612 21.9172 56.641 25.0802 53.881 25.0522C52.442 25.0522 51.494 23.7872 52.011 20.8242H53.018L53.218 19.5012H52.24L52.729 16.5112H51.264L50.864 19.4442H50.001C49.9173 19.9006 49.8599 20.3613 49.829 20.8242C50.1349 20.8535 50.443 20.8535 50.749 20.8242C50.49 22.5502 50.116 25.2242 47.642 25.0522C45.314 24.9082 45.773 21.8032 46.952 21.8892C47.7 21.8602 47.326 23.2402 46.952 24.0742H48.246C49.424 22.1182 49.856 19.0992 47.929 19.1852C47.095 19.1852 46.664 19.7852 46.229 20.1632L46.517 17.6032L45.078 16.0742L43.411 17.5442L43.784 20.1612C43.324 19.7612 42.748 19.0972 41.943 19.1832C40.243 19.2982 40.765 22.0582 41.627 24.0722H42.979C42.634 23.2382 42.379 22.0302 43.094 22.0022C44.794 21.7722 44.503 25.0502 42.203 25.1082C39.845 25.1372 39.758 22.5202 39.503 20.8222C39.8283 20.8516 40.1556 20.8516 40.481 20.8222C40.423 20.3622 40.365 19.9892 40.309 19.4992H39.327L38.837 16.5662H37.427L37.864 19.5572H36.881L37.054 20.8222H38.09C38.607 23.8712 37.49 25.1082 36.077 25.1082C33.46 25.1082 33.604 21.9162 34.377 21.9442C35.24 21.9442 34.977 23.3252 34.977 24.1872H36.077C37.084 22.3472 36.764 19.2992 34.552 19.2992C33.689 19.2992 33.402 20.4492 33.086 21.0822L32.856 19.1822L29.606 17.5432L34.179 29.8822Z" fill="black"/>
</g>
<g id="Group 6">
<path id="Path 6" d="M59.458 14.7252C59.7353 14.7038 59.9947 14.5802 60.1861 14.3785C60.3775 14.1768 60.4872 13.9112 60.494 13.6332C60.4858 13.3611 60.3739 13.1023 60.1814 12.9098C59.9889 12.7173 59.7302 12.6055 59.458 12.5972C59.1726 12.5882 58.8951 12.6918 58.6854 12.8857C58.4757 13.0795 58.3505 13.348 58.337 13.6332C58.3483 13.9242 58.4709 14.1998 58.6795 14.403C58.8881 14.6063 59.1668 14.7216 59.458 14.7252Z" fill="black"/>
</g>
<g id="Group 7">
<path id="Path 7" d="M59.947 16.6812C58.0644 14.5598 55.7525 12.8628 53.1644 11.7025C50.5763 10.5423 47.7712 9.94531 44.935 9.95122C42.1164 9.96815 39.334 10.5877 36.7745 11.7683C34.215 12.9489 31.9375 14.6632 30.095 16.7962L32.77 18.0322V17.0542C34.985 14.6962 39.759 12.1072 42.692 12.1072L43.354 16.4502L45.08 14.7242L46.605 16.2492L47.065 12.1662C49.999 12.1082 55.176 14.3232 57.419 16.8532V17.9172L59.947 16.6812Z" fill="black"/>
</g>
<g id="Group 8">
<path id="Path 8" d="M30.527 14.6101C30.812 14.5954 31.0814 14.4755 31.2831 14.2736C31.4849 14.0717 31.6045 13.8022 31.619 13.5171C31.608 13.2336 31.4886 12.9652 31.2854 12.7672C31.0822 12.5692 30.8107 12.4568 30.527 12.4531C30.249 12.4584 29.9843 12.5731 29.7904 12.7723C29.5964 12.9715 29.4888 13.2391 29.491 13.5171C29.4923 13.7969 29.6002 14.0657 29.7926 14.2687C29.9851 14.4718 30.2477 14.5939 30.527 14.6101Z" fill="black"/>
</g>
<g id="Group 9">
<path id="Path 9" d="M42.375 6.669C42.3743 6.98157 42.4358 7.29116 42.5559 7.57974C42.676 7.86833 42.8523 8.13014 43.0745 8.34995C43.2967 8.56976 43.5605 8.74317 43.8503 8.8601C44.1402 8.97702 44.4505 9.03511 44.763 9.031C45.0703 9.03111 45.3746 8.96963 45.6577 8.85019C45.9409 8.73074 46.1973 8.55576 46.4117 8.33558C46.6261 8.11539 46.7942 7.85447 46.906 7.56822C47.0179 7.28198 47.0713 6.97622 47.063 6.669C47.0796 6.13722 46.9065 5.61687 46.5745 5.20113C46.2424 4.78539 45.7733 4.5014 45.251 4.4V3.02H46.516V1.956H45.251V0H44.157V1.956H42.864V2.992H44.157V4.401C43.6543 4.53484 43.2087 4.82839 42.8873 5.23744C42.5659 5.6465 42.3861 6.1489 42.375 6.669Z" fill="black"/>
</g>
<g id="Group 10">
<path id="Path 10" d="M35.299 11.5623C35.5841 11.5485 35.8525 11.4233 36.0462 11.2137C36.24 11.004 36.3437 10.7266 36.335 10.4413C36.3314 10.1676 36.221 9.90623 36.0275 9.71272C35.834 9.51921 35.5726 9.4089 35.299 9.40527C35.0178 9.41099 34.7484 9.51957 34.5418 9.71047C34.3352 9.90138 34.2058 10.1614 34.178 10.4413C34.1929 10.7337 34.3159 11.0103 34.5229 11.2173C34.73 11.4244 35.0065 11.5473 35.299 11.5623Z" fill="black"/>
</g>
<g id="Group 11">
<path id="Path 11" d="M32.8549 13.0865C33.1386 13.068 33.4043 12.9413 33.5971 12.7325C33.7899 12.5236 33.8951 12.2487 33.8909 11.9645C33.8871 11.691 33.7766 11.4298 33.5832 11.2366C33.3897 11.0433 33.1284 10.9331 32.8549 10.9295C32.7182 10.9263 32.5822 10.9509 32.4552 11.0018C32.3282 11.0527 32.2128 11.1289 32.1161 11.2256C32.0193 11.3223 31.9432 11.4377 31.8923 11.5647C31.8414 11.6917 31.8168 11.8277 31.8199 11.9645C31.8128 12.1064 31.8341 12.2484 31.8825 12.382C31.9309 12.5157 32.0055 12.6383 32.1019 12.7428C32.1982 12.8473 32.3145 12.9315 32.4438 12.9905C32.5731 13.0495 32.7129 13.0821 32.8549 13.0865Z" fill="black"/>
</g>
<g id="Group 12">
<path id="Path 12" d="M40.592 9.54846C40.7292 9.55334 40.8659 9.52995 40.9936 9.47973C41.1213 9.4295 41.2373 9.35353 41.3344 9.25654C41.4315 9.15955 41.5076 9.04361 41.5579 8.91594C41.6083 8.78827 41.6318 8.65161 41.627 8.51446C41.638 8.37437 41.619 8.23355 41.5713 8.10139C41.5236 7.96922 41.4482 7.84874 41.3503 7.74797C41.2524 7.64721 41.1341 7.56846 41.0033 7.51699C40.8726 7.46551 40.7324 7.44249 40.592 7.44946C40.453 7.44728 40.3149 7.47356 40.1864 7.5267C40.0578 7.57984 39.9415 7.65871 39.8446 7.75846C39.7476 7.85821 39.6721 7.97673 39.6227 8.10674C39.5732 8.23675 39.5509 8.3755 39.557 8.51446C39.5565 8.65048 39.5829 8.78525 39.6348 8.91101C39.6866 9.03676 39.7628 9.15101 39.8591 9.24714C39.9553 9.34328 40.0696 9.4194 40.1954 9.47112C40.3212 9.52283 40.456 9.54912 40.592 9.54846Z" fill="black"/>
</g>
<g id="Group 13">
<path id="Path 13" d="M37.86 10.3819C37.996 10.3824 38.1309 10.356 38.2567 10.3042C38.3825 10.2524 38.4968 10.1762 38.593 10.0799C38.6892 9.98373 38.7654 9.86942 38.8173 9.74361C38.8691 9.6178 38.8955 9.48297 38.895 9.34691C38.8981 9.06601 38.7918 8.7949 38.5987 8.59093C38.4055 8.38695 38.1406 8.26609 37.86 8.25391C37.5716 8.25879 37.2964 8.37552 37.0925 8.57944C36.8886 8.78337 36.7719 9.05855 36.767 9.34691C36.7706 9.48669 36.8018 9.62438 36.8587 9.7521C36.9156 9.87982 36.9972 9.99505 37.0987 10.0912C37.2002 10.1873 37.3197 10.2625 37.4504 10.3124C37.581 10.3623 37.7202 10.3859 37.86 10.3819Z" fill="black"/>
</g>
<g id="Group 14">
<path id="Path 14" d="M10.797 66.2923C11.1455 66.5198 11.5109 66.7204 11.89 66.8923C12.1867 67.028 12.4749 67.1816 12.753 67.3523C13.153 67.4673 13.53 67.6973 13.962 67.7843C14.5989 68.0733 15.2783 68.2576 15.974 68.3303C16.722 68.5613 17.474 68.6173 18.16 68.8193C19.4367 69.1028 20.7355 69.2758 22.042 69.3363C21.6193 69.4448 21.2133 69.6099 20.835 69.8273C20.749 69.9113 20.72 70.0563 20.662 70.1423C20.547 70.3423 20.691 70.5153 20.748 70.6593C21.371 71.0226 22.0519 71.2757 22.761 71.4073C23.3281 71.685 23.9432 71.8513 24.573 71.8973C24.515 72.6763 24.483 73.4533 24.483 74.1973C24.601 81.7363 28.542 90.9973 41.11 90.8233C44.0683 90.7447 46.9856 90.111 49.71 88.9553C57.793 85.6473 64.062 79.0333 65.01 77.5643L63.571 76.1573C58.771 80.2403 54.571 83.7203 49.708 84.9293C48.5893 85.2146 47.4413 85.3689 46.287 85.3893C41.253 85.4463 35.013 82.7713 34.898 74.6613C34.8904 73.4368 34.9962 72.2143 35.214 71.0093C40.1914 69.9938 45.049 68.4611 49.708 66.4363C57.043 63.1853 63.916 58.4363 67.281 52.1133C68.7688 49.8598 69.5681 47.2217 69.581 44.5213C69.495 39.2583 65.756 36.4683 59.659 36.5543C56.2242 36.6448 52.8417 37.4171 49.708 38.8263C41.108 42.5643 33.114 50.3593 28.542 59.1023L28.369 59.0163C24.1876 56.5678 20.4768 53.3927 17.411 49.6403C17.354 49.6113 17.354 49.5253 17.296 49.4963C16.404 48.4333 15.396 47.3393 14.564 46.1603C14.564 46.1603 14.017 45.4703 13.759 45.0963C13.184 44.3483 12.724 43.5433 12.177 42.7963C11.344 41.7613 10.711 40.5823 9.96399 39.5183C8.98599 37.8793 7.94999 36.2683 7.02998 34.6283C6.88299 34.3973 6.68298 33.9973 6.68298 33.9973C5.90598 32.5593 5.21598 31.0923 4.49598 29.6833C4.35198 29.4833 4.29598 29.2513 4.15198 29.0833C3.94353 28.8237 3.76037 28.5448 3.60498 28.2503C3.20739 27.6877 2.6869 27.2229 2.08299 26.8913C1.98949 26.8822 1.89514 26.893 1.80606 26.9228C1.71699 26.9526 1.63519 27.0008 1.56599 27.0643C1.38092 27.4837 1.26411 27.93 1.21999 28.3863C1.15758 29.1239 1.16763 29.8657 1.24999 30.6013C1.24999 30.8893 1.36398 31.1763 1.39298 31.4643C1.42198 31.8093 1.56598 32.1253 1.59298 32.4713C2.12956 34.5187 2.83188 36.5189 3.69299 38.4523C4.15299 39.3443 4.61298 40.2363 5.15898 41.0983C5.95975 42.5417 6.83321 43.9435 7.77599 45.2983C9.32999 47.3403 11.027 49.3823 12.694 51.2803C12.6005 51.2493 12.5197 51.1886 12.464 51.1073C11.5065 50.3897 10.6039 49.6015 9.76399 48.7493C8.69999 47.5703 7.43398 46.5923 6.34098 45.4423C6.28398 45.3563 3.78199 42.9693 2.83198 42.0483C2.27474 41.4569 1.62365 40.9616 0.904985 40.5823C0.645985 40.5243 0.272985 40.4383 0.0999846 40.7263C0.0598908 40.7772 0.030625 40.8357 0.0139852 40.8983C-0.0119025 41.1398 0.00777103 41.3841 0.0719848 41.6183C0.152992 42.058 0.268345 42.4907 0.416985 42.9123C0.502985 43.3433 0.790985 43.7453 0.876985 44.1783C1.41738 45.2343 2.01253 46.2614 2.65999 47.2553C3.30523 48.2475 4.03638 49.1811 4.84499 50.0453C6.80813 52.2358 8.99654 54.2133 11.374 55.9453C12.525 56.7223 13.618 57.5843 14.825 58.2753C15.0101 58.4098 15.202 58.5346 15.4 58.6493C15.516 58.7633 15.687 58.7933 15.774 58.9083H15.715C13.215 57.8733 10.94 56.5213 8.52398 55.3423C7.37498 54.7423 6.28098 53.9613 5.15898 53.3293C5.07298 53.2143 3.72098 52.5523 3.20398 52.1793C2.77198 52.0063 2.42699 51.6033 1.93899 51.6893C1.39199 51.8893 1.65099 52.7823 1.76599 53.0413C1.95207 53.4377 2.16316 53.8218 2.39798 54.1913C2.90048 55.0573 3.54244 55.8344 4.29798 56.4913C4.63149 56.8396 4.98688 57.1663 5.36198 57.4693C6.01473 58.0823 6.71713 58.6403 7.46199 59.1373C8.49798 59.7993 9.50399 60.4883 10.568 61.0643C10.942 61.2643 11.345 61.5243 11.719 61.7253C12.8048 62.341 13.9393 62.8668 15.111 63.2973C15.226 63.3833 16.894 64.0453 17.584 64.3333C17.67 64.3623 18.677 64.7333 19.108 64.8503L19.136 64.9093C18.736 64.8803 18.336 64.7363 17.9 64.7363C17.7 64.6783 17.526 64.7363 17.325 64.6503C16.864 64.5063 16.376 64.4783 15.944 64.3633C14.908 64.2193 13.961 64.0173 12.954 63.8463C11.738 63.4898 10.4982 63.2205 9.24399 63.0403C8.75498 63.0693 8.23798 62.8113 7.80598 63.0403C7.74798 63.1563 7.60599 63.1273 7.54699 63.2403C7.49927 63.428 7.50652 63.6254 7.56786 63.8091C7.62921 63.9928 7.74206 64.155 7.89298 64.2763C8.53372 64.878 9.23784 65.4085 9.99299 65.8583C10.28 65.9733 10.481 66.2323 10.793 66.2903M38.748 59.4173C41.394 52.8023 45.448 46.7343 49.705 43.0243C52.294 40.7513 54.968 39.3713 57.414 39.3143C64.057 39.1413 63.741 52.3143 50.453 59.7053C50.194 59.8203 49.964 59.9643 49.705 60.0793C45.9924 61.8499 41.8558 62.5379 37.77 62.0643L38.748 59.4173ZM29.804 67.3253C29.604 67.0093 28.481 67.1533 28.481 67.1533H26.528C25.637 67.1533 24.774 67.0673 23.882 66.9803L22.56 66.8973C20.6106 66.7624 18.6709 66.5127 16.751 66.1493C15.2056 65.8466 13.6863 65.4233 12.207 64.8833C12.207 64.8833 11.483 64.5973 11.573 64.4513C11.659 64.3353 12.694 64.7383 13.298 64.8243C13.442 64.8243 14.391 65.0243 15.37 65.2243C18.302 65.7713 18.331 65.7713 18.331 65.7713L19.913 66.0003C20.76 66.1406 21.615 66.2271 22.473 66.2593C22.7084 66.3182 22.9503 66.3471 23.193 66.3453L23.853 66.4033C25.6118 66.5736 27.3798 66.6311 29.146 66.5753H29.52L29.779 66.5463L30.326 66.5173C30.4704 66.5154 30.6146 66.5057 30.758 66.4883H31.183C31.183 66.4883 31.583 66.4603 31.615 66.4603L33.225 66.1723C35.037 65.8553 35.066 65.8553 35.066 65.8553L35.526 65.6553L35.555 65.5693L35.53 65.3973L35.474 65.3403L35.1 65.3113C34.152 65.4843 33.2 65.5703 32.4 65.6573C31.8952 65.735 31.3864 65.7831 30.876 65.8013H30.301L28.978 65.7723C28.432 65.7433 27.914 65.7433 27.339 65.6573C26.8192 65.6482 26.3004 65.6098 25.785 65.5423C25.585 65.5133 25.498 65.4843 25.441 65.4843L25.067 65.4273L24.607 65.3113H24.515C24.3802 65.3042 24.2464 65.2852 24.115 65.2543L23.883 65.1973C23.3075 65.0785 22.7398 64.9249 22.183 64.7373C21.6965 64.55 21.1946 64.4054 20.683 64.3053C18.9 63.7053 18.468 63.5293 18.353 63.5293L18.382 63.5013L17.261 63.1013C16.5088 62.8453 15.7716 62.5472 15.053 62.2083L13.414 61.4603L12.724 61.1433L12.207 60.8843L11.056 60.2523L10.769 60.0793C10.5184 59.9852 10.2852 59.85 10.079 59.6793C8.30269 58.6978 6.67561 57.4677 5.24698 56.0263C5.24698 56.0263 5.13198 55.8823 5.07398 55.7963C5.85098 56.3963 6.65598 56.9173 7.37398 57.3783L8.98398 58.4423C10.4093 59.2871 11.8888 60.0367 13.413 60.6863L13.96 60.9443L16.116 61.8643L18.101 62.6693C18.101 62.6693 18.301 62.7553 18.273 62.7553L18.389 62.8133C19.482 63.2133 20.632 63.5613 21.725 63.8773L22.818 64.1643L24.518 64.6243L25.87 64.9133C25.87 64.9133 26.215 64.8543 26.129 64.6243C26.014 64.3663 25.036 64.1073 25.036 64.1073C22.85 63.5613 21.499 63.0433 20.492 62.7263C17.4537 61.6476 14.4937 60.3602 11.633 58.8733L10.833 58.4413L10.316 58.1543C9.30525 57.5526 8.33242 56.8893 7.40299 56.1683C7.08599 55.9383 7.00299 55.8813 6.97199 55.8513V55.8803L5.93699 54.9883L5.59098 54.7013C5.96498 54.9013 6.91398 55.5013 6.91398 55.5013C8.75498 56.6233 10.164 57.4283 11.545 58.1473C12.033 58.4343 12.581 58.6643 13.127 58.9233C13.617 59.1533 14.105 59.3553 14.593 59.6433L14.793 59.7293C15.6168 60.1211 16.4617 60.4666 17.324 60.7643C18.4422 61.2658 19.585 61.7107 20.748 62.0973L20.69 62.0683L23.25 62.8733C26.758 63.9663 26.758 63.9663 26.787 63.9663L28.024 64.2823C28.657 64.4263 29.318 64.5693 29.98 64.7133C30.325 64.7713 30.986 64.7133 30.986 64.4553C30.986 64.2553 29.893 63.9943 29.692 63.9373C28.1282 63.5737 26.5912 63.1029 25.092 62.5283L24.545 62.3553C24.3625 62.2638 24.1689 62.1965 23.969 62.1553L23.078 61.7553L22.704 61.6113L21.583 61.1153L21.409 60.9973C21.365 60.9624 21.3166 60.9334 21.265 60.9113C20.3113 60.4632 19.3973 59.935 18.533 59.3323C17.009 58.3833 15.427 57.3473 13.874 56.2553L12.983 55.5973C12.293 55.0803 12.033 54.9073 11.947 54.8493C11.8427 54.7044 11.7057 54.5862 11.547 54.5043C11.4245 54.4173 11.3088 54.321 11.201 54.2163V54.1873L11.173 54.1583H11.144C11.0109 54.0848 10.8856 53.998 10.77 53.8993L10.712 53.8133C9.01139 52.4791 7.38872 51.0484 5.85199 49.5283C5.02725 48.7805 4.30198 47.9299 3.69399 46.9973C3.14699 46.1923 2.97398 45.9623 2.91598 45.8763H2.94498L2.80098 45.7033C2.66838 45.4513 2.51448 45.2111 2.34098 44.9853H2.36999L2.25499 44.7853C2.206 44.6484 2.14821 44.5148 2.08198 44.3853C3.34799 45.9963 4.43999 47.3193 5.47599 48.4113C7.68668 50.5799 10.0407 52.5975 12.522 54.4503L13.069 54.8503L13.759 55.4503C14.507 56.0503 15.025 56.2553 15.801 56.8313C16.29 57.2053 16.952 57.6073 17.469 57.9813C18.1515 58.4378 18.8623 58.8506 19.597 59.2173L20.921 59.9943C21.381 60.2533 22.243 60.4543 22.128 60.1663C21.6549 59.7003 21.1112 59.3119 20.517 59.0153C19.339 58.3253 18.935 57.9223 18.817 57.8943H18.883C17.983 57.3193 16.923 56.5973 15.883 55.8813L15.772 55.7973C15.4055 55.4742 15.0109 55.1844 14.593 54.9313L14.276 54.6733L14.132 54.5573L13.586 54.1573C13.0767 53.8006 12.587 53.4167 12.119 53.0073L11.343 52.3743C11.084 52.1743 10.969 52.0873 10.911 52.0283C10.5018 51.6386 10.0697 51.2736 9.61699 50.9353H9.64599L8.26599 49.6413L7.89198 49.3243C6.59798 48.0303 5.30298 46.5923 3.69198 44.6653L3.63399 44.5503C3.63399 44.5503 3.23399 43.9503 2.97199 43.5443C3.20299 43.7163 3.43199 43.9183 3.43199 43.9183L4.78398 45.1553C7.14298 47.4273 7.60298 47.8553 7.68898 47.9163H7.65999C8.18828 48.4725 8.74573 49.0002 9.32999 49.4973L10.135 50.2453L12.435 52.2873L13.154 52.9193C14.2207 53.8113 15.2563 54.6166 16.261 55.3353L17.67 56.3973C18.619 57.0873 18.792 57.2023 18.849 57.2313H18.821C19.4768 57.7277 20.1584 58.189 20.863 58.6133L21.869 59.2453L22.013 59.3313L22.703 59.6763C22.875 59.7623 22.933 59.8203 22.99 59.8203H22.963C24.0829 60.5205 25.279 61.0908 26.528 61.5203C27.3358 61.8706 28.1616 62.1777 29.002 62.4403L29.088 62.4983C29.244 62.5925 29.4227 62.6423 29.605 62.6423L29.805 62.6133L29.891 62.4693V62.4403C29.8779 62.4029 29.8682 62.3644 29.862 62.3253C29.7375 62.2345 29.6033 62.1577 29.462 62.0963C29.3424 62.0602 29.2268 62.0119 29.117 61.9523C28.983 61.8418 28.8258 61.7632 28.657 61.7223C28.2234 61.6179 27.8135 61.4323 27.449 61.1753C26.898 60.9359 26.3602 60.6672 25.838 60.3703L25.607 60.2563L25.435 60.1703C25.1579 59.9893 24.8697 59.8259 24.572 59.6813L23.709 59.1343L22.961 58.6453C22.619 58.3958 22.2635 58.1655 21.896 57.9553H21.925L21.583 57.6923C20.9463 57.2747 20.3321 56.8238 19.743 56.3413L18.792 55.5973C18.073 54.9973 17.929 54.8783 17.9 54.8493L17.926 54.8733C17.9196 54.8727 17.9136 54.8701 17.9089 54.8657C17.9042 54.8614 17.9011 54.8556 17.9 54.8493C14.7958 52.0521 11.92 49.0114 9.29998 45.7563C8.86544 45.2045 8.46246 44.6286 8.09299 44.0313L7.66098 43.3693L7.08598 42.4493C6.67459 41.821 6.30029 41.1693 5.96499 40.4973L5.50499 39.6343C5.08418 38.9453 4.7187 38.2241 4.41198 37.4773L4.21199 37.0173C4.09699 36.7583 4.03899 36.6433 4.01199 36.5853C3.94314 36.3022 3.85664 36.0236 3.75299 35.7513L3.52399 35.0613C3.06399 33.7383 2.74699 32.6173 2.45999 31.5533C2.43385 31.2433 2.38573 30.9355 2.31599 30.6323L2.25899 30.3163L2.22998 30.0853V30.0573C2.26136 30.2466 2.31961 30.4305 2.40299 30.6033L2.57499 31.2033L3.20799 32.9033L3.55298 33.7093C3.71952 34.2205 3.94116 34.7121 4.21398 35.1753L4.58798 35.8943L5.18798 37.0733L5.61898 37.8783L6.25098 38.9993L6.42399 39.2873C7.11199 40.4243 7.31299 40.7583 7.38499 40.8723C7.39036 40.8737 7.39504 40.877 7.39817 40.8816C7.4013 40.8862 7.40265 40.8918 7.40198 40.8973C7.40198 40.8913 7.39199 40.8823 7.38499 40.8723H7.37398C7.60634 41.3329 7.8738 41.7748 8.17399 42.1943L8.69199 43.0573C9.52598 44.2943 10.359 45.4153 11.366 46.7673L11.51 46.9673L11.71 47.1973L12.026 47.5713C12.026 47.5713 12.426 48.0603 12.426 48.0313C12.4862 48.148 12.5637 48.2549 12.656 48.3483C12.656 48.3483 12.829 48.5483 12.856 48.5783L12.886 48.6073L12.943 48.6643C12.9779 48.7083 13.0068 48.7567 13.029 48.8083L13.288 49.0673C13.4627 49.2752 13.6551 49.4676 13.863 49.6423H13.834C13.9377 49.8023 14.074 49.9386 14.234 50.0423V50.0713C14.4701 50.3785 14.7299 50.6667 15.011 50.9333L15.357 51.2503L16.334 52.3153C16.9263 53.0022 17.5859 53.628 18.303 54.1833C18.303 54.1833 19.396 55.1903 19.541 54.9883C19.655 54.8443 19.397 54.3563 18.908 53.8673L17.757 52.7463C16.567 51.6421 15.4615 50.4501 14.45 49.1803L13.559 48.0583C13.1137 47.5678 12.7005 47.0491 12.322 46.5053C12.0613 46.136 11.7813 45.7809 11.483 45.4413H11.512L11.195 44.9813C10.0833 43.4804 9.07688 41.9043 8.18299 40.2643C7.34899 38.7643 6.57198 37.3313 5.65198 35.6343C5.48142 35.3167 5.32787 34.9902 5.19198 34.6563L5.16299 34.5703C5.10599 34.4553 3.95498 31.5213 3.86898 31.4063L3.78299 31.1483C3.62727 30.7876 3.51126 30.4111 3.43699 30.0253C3.66799 30.3713 3.86898 30.6583 4.01298 30.9163L4.32898 31.6363L4.58798 32.2113L5.16299 33.2763C5.56299 34.0763 5.99698 34.9153 6.45698 35.6923L6.60099 35.9793C6.62898 36.0083 6.65799 36.0653 6.68699 36.0943L7.20398 36.9573C7.44157 37.2795 7.64279 37.6269 7.80399 37.9933L8.89699 39.8053L10.363 42.1633C10.363 42.1633 11.025 43.2283 11.053 43.2283L12.724 45.4973L13.299 46.2973L13.558 46.6423C13.7263 46.8234 13.8712 47.025 13.989 47.2423L14.421 47.7893C14.738 48.2203 15.053 48.6523 15.399 49.0553C16.2662 50.1726 17.1978 51.2384 18.189 52.2473L19.024 53.1383C19.684 53.7383 21.066 55.1233 21.152 55.2093C21.471 55.5721 21.8277 55.8999 22.216 56.1873L22.302 56.2733C22.302 56.2733 23.165 56.9923 23.194 56.9923C23.654 57.3663 24.114 57.7693 24.603 58.1133L25.409 58.6313L26.07 59.0913C26.617 59.4083 26.788 59.5223 26.847 59.5513H26.818C26.8824 59.585 26.9492 59.6138 27.018 59.6373L27.134 59.7233L27.565 59.9533C28.6445 60.6041 29.7903 61.1381 30.983 61.5463L31.583 61.7463C31.9478 61.8971 32.3227 62.0221 32.705 62.1203C44.151 66.4063 55.023 58.8713 58.1 56.4553C58.1156 56.4395 58.136 56.4293 58.158 56.4263L59.078 55.6263C59.452 55.3093 59.912 54.9073 60.229 54.6483C59.6057 55.5269 58.9234 56.3621 58.187 57.1483C54.4194 60.9863 50.0948 64.2345 45.359 66.7833C45.2762 66.8158 45.1888 66.835 45.1 66.8403C45.1418 66.7949 45.1904 66.7561 45.244 66.7253L45.388 66.6113C45.567 66.4961 45.7396 66.3713 45.905 66.2373C46.422 65.8933 46.97 65.5183 47.487 65.1163L47.687 64.9433C47.9929 64.7497 48.2729 64.5179 48.52 64.2533L50.141 62.8973C50.141 62.8973 50.572 62.5233 50.541 62.3803L50.512 62.2933L50.454 62.2653C50.3967 62.2427 50.3344 62.236 50.2736 62.2461C50.2128 62.2561 50.1559 62.2825 50.109 62.3223C50.052 62.3223 47.664 64.0763 47.463 64.1343L47.118 64.3643C46.008 65.0503 45.652 65.2753 45.534 65.3533C45.5323 65.359 45.5287 65.3638 45.5237 65.367C45.5187 65.3701 45.5128 65.3713 45.507 65.3703L45.534 65.3533C45.5343 65.3497 45.5343 65.346 45.534 65.3423L45.217 65.5143L44.843 65.7143L44.556 65.8873C44.413 65.9443 44.297 66.0303 44.182 66.0593H44.153L44.124 66.0883C43.9525 66.2271 43.7579 66.3344 43.549 66.4053C43.5226 66.4283 43.4933 66.4478 43.462 66.4633C43.3928 66.4967 43.326 66.5348 43.262 66.5773C43.1384 66.5801 43.0185 66.6202 42.918 66.6923L42.889 66.7213C42.17 67.0953 41.389 67.4413 40.531 67.8143L38.862 68.4753C38.1431 68.8098 37.4036 69.098 36.648 69.3383L35.785 69.6553C35.785 69.6553 35.124 69.8553 35.095 69.8553C34.633 70.007 34.1625 70.1315 33.686 70.2283L32.795 70.4283C32.3422 70.5573 31.8807 70.6532 31.414 70.7153C31.069 70.8013 30.696 70.8313 30.321 70.8873L29.721 70.9733L28.513 71.0033L27.363 71.0313C26.3216 71.0402 25.2815 70.9535 24.256 70.7723C24.774 70.7443 25.522 70.6863 25.522 70.6863C26.8319 70.6238 28.1375 70.4903 29.433 70.2863L31.044 70.0863C31.907 69.9443 32.424 69.7993 33.287 69.5983C33.546 69.5403 34.035 69.3113 33.977 69.1663C33.919 69.0213 32.942 69.1663 32.799 69.1943C32.54 69.2533 30.93 69.5113 30.93 69.5113C29.521 69.6843 28.198 69.8573 27.68 69.8853C27.191 69.9443 26.529 69.9443 25.724 69.9993C24.9547 70.0767 24.1779 70.0288 23.424 69.8573C24.1324 69.5952 24.8838 69.4683 25.639 69.4833C26.099 69.4533 26.588 69.4253 27.019 69.3673C27.5582 69.3489 28.096 69.3012 28.63 69.2243L30.096 69.0803C31.4738 68.8502 32.8376 68.543 34.181 68.1603L35.906 67.7003L37.286 67.3003L37.804 67.1273L39.329 66.6103L39.587 66.5243L39.932 66.3513H39.961L39.99 66.3223V66.2933C40.049 66.2063 40.019 66.1493 39.961 66.0633L39.846 65.9773L39.271 66.1213L38.954 66.1793L38.293 66.3793C37.9163 66.4504 37.5494 66.5658 37.2 66.7233C36.021 66.9823 34.842 67.2413 33.634 67.4433C32.513 67.6733 31.361 67.8433 30.24 68.0183L30.211 68.0473L29.636 68.1053L29.349 68.1343C28.4705 68.2371 27.5874 68.2945 26.703 68.3063L26.303 68.3653C26.1968 68.3542 26.0895 68.3638 25.987 68.3933V68.3653H24.803L23.74 68.3363L21.898 68.2473C21.2957 68.1768 20.6885 68.1578 20.083 68.1903C20.083 68.1613 18.529 67.8733 18.213 67.8453L16.343 67.4453C16.1743 67.3907 16.0009 67.3519 15.825 67.3293L15.053 67.0973C14.7051 67.0352 14.3667 66.9287 14.046 66.7803L13.5 66.6083C12.7847 66.4108 12.0982 66.1206 11.458 65.7453C11.25 65.6672 11.0493 65.5712 10.858 65.4583C11.29 65.5443 11.979 65.7453 11.979 65.7453L13.101 66.0323C15.0514 66.5431 17.0284 66.9467 19.023 67.2413L19.683 67.3563V67.3273C19.7371 67.3509 19.7961 67.3609 19.855 67.3563C21.409 67.5283 22.846 67.6433 24.371 67.7563L24.745 67.7853L25.377 67.8143C25.777 67.8143 26.154 67.8143 26.499 67.7853C27.0171 67.8046 27.5359 67.7949 28.053 67.7563C28.5143 67.7567 28.9753 67.728 29.433 67.6703C29.778 67.6123 29.893 67.4703 29.807 67.3243" fill="black"/>
</g>
</g>
</g>
</g>
<g id="Group 16">
<path id="Path 16" d="M50.617 103.719L49.117 99.9751H48.317L46.86 103.719H47.66L47.969 102.868H49.469L49.796 103.719H50.617ZM48.204 102.238L48.71 100.848L49.226 102.238H48.204Z" fill="black"/>
</g>
<g id="Group 17">
<path id="Path 17" d="M40.241 103.719V99.9751H39.541V102.475L38.008 99.9751H37.27V103.719H37.97V101.278L39.479 103.719H40.241Z" fill="black"/>
</g>
<g id="Group 18">
<path id="Path 18" d="M36.622 103.089H34.53V102.07H36.41V101.44H34.53V100.61H36.55V99.9761H33.774V103.72H36.622V103.089Z" fill="black"/>
</g>
<g id="Clip path group_2">
<mask id="mask1_24_47" style="mask-type:luminance" maskUnits="userSpaceOnUse" x="0" y="0" width="71" height="123">
<g id="clip-path_2">
<path id="Path 15_2" d="M0 122.616H70.57V0H0V122.616Z" fill="white"/>
</g>
</mask>
<g mask="url(#mask1_24_47)">
<g id="Group 20">
<g id="Group 19">
<path id="Path 19" d="M26.5021 99.9751V101.975C26.4934 102.293 26.5182 102.612 26.5761 102.925C26.6142 103.078 26.6867 103.22 26.7881 103.34C26.9066 103.48 27.0567 103.59 27.2261 103.661C27.4863 103.757 27.7632 103.799 28.0401 103.785C28.2851 103.794 28.5296 103.755 28.7601 103.671C28.9295 103.605 29.081 103.5 29.2021 103.364C29.3153 103.229 29.393 103.067 29.4281 102.894C29.4782 102.579 29.4987 102.26 29.4891 101.941V99.9751H28.7321V102.046C28.7373 102.259 28.7262 102.471 28.6991 102.682C28.6755 102.811 28.6041 102.927 28.4991 103.006C28.3568 103.103 28.1859 103.149 28.0141 103.137C27.8366 103.148 27.6607 103.099 27.5141 102.998C27.3936 102.908 27.3109 102.776 27.2821 102.628C27.2572 102.421 27.2478 102.212 27.2541 102.003V99.9751H26.5021Z" fill="black"/>
</g>
</g>
</g>
</g>
<g id="Group 21">
<path id="Path 21" d="M57.2549 99.9751H56.4549L54.9969 103.719H55.7969L56.1059 102.869H57.6059L57.9329 103.719H58.7539L57.2549 99.9751ZM56.3399 102.238L56.8459 100.849L57.3619 102.238H56.3399Z" fill="black"/>
</g>
<g id="Group 22">
<path id="Path 22" d="M54.5219 99.9751L53.9469 102.59L53.2889 99.9751H52.3889L51.7039 102.547L51.1409 99.9751H50.3669L51.2609 103.719H52.0799L52.8219 100.92L53.5679 103.72H54.3679L55.2809 99.9751H54.5219Z" fill="black"/>
</g>
<g id="Group 23">
<path id="Path 23" d="M33.133 103.089H31.041V102.07H32.921V101.44H31.041V100.61H33.062V99.9761H30.285V103.72H33.133V103.089Z" fill="black"/>
</g>
<g id="Clip path group_3">
<mask id="mask2_24_47" style="mask-type:luminance" maskUnits="userSpaceOnUse" x="0" y="0" width="71" height="123">
<g id="clip-path_3">
<path id="Path 15_3" d="M0 122.616H70.57V0H0V122.616Z" fill="white"/>
</g>
</mask>
<g mask="url(#mask2_24_47)">
<g id="Group 26">
<g id="Group 24">
<path id="Path 24" d="M25.915 101.848C25.9472 101.327 25.7722 100.814 25.428 100.421C25.2557 100.248 25.049 100.114 24.8215 100.026C24.5939 99.9386 24.3505 99.8996 24.107 99.9119C23.8621 99.8995 23.6173 99.9383 23.3882 100.026C23.1592 100.114 22.951 100.248 22.777 100.421C22.432 100.813 22.2569 101.327 22.29 101.848C22.2563 102.369 22.4308 102.882 22.775 103.275C22.9522 103.45 23.164 103.586 23.3968 103.674C23.6297 103.762 23.8783 103.801 24.127 103.788C24.4073 103.79 24.6849 103.733 24.942 103.622C25.254 103.832 25.421 103.942 25.442 103.954C25.5484 104.013 25.6607 104.06 25.777 104.095L26.055 103.562C25.8407 103.484 25.6381 103.377 25.453 103.244C25.5938 103.084 25.7046 102.9 25.78 102.701C25.8751 102.427 25.9208 102.138 25.915 101.848ZM25.064 102.404C25.0206 102.556 24.946 102.697 24.845 102.818C24.6292 102.653 24.3885 102.523 24.132 102.434L23.92 102.866C24.0855 102.926 24.2433 103.005 24.39 103.102C24.2911 103.138 24.1864 103.157 24.081 103.156C23.9429 103.159 23.8057 103.132 23.6796 103.075C23.5535 103.019 23.4415 102.935 23.352 102.83C23.1399 102.548 23.0379 102.199 23.065 101.848C23.0382 101.501 23.1404 101.156 23.352 100.88C23.4455 100.774 23.5612 100.691 23.6909 100.635C23.8206 100.579 23.961 100.553 24.102 100.558C24.2426 100.553 24.3826 100.579 24.5119 100.635C24.6412 100.69 24.7567 100.774 24.85 100.879C25.0607 101.156 25.1625 101.501 25.136 101.848C25.1385 102.036 25.1149 102.223 25.064 102.404Z" fill="black"/>
</g>
<g id="Group 25">
<path id="Path 25" d="M62.066 102.989C61.9405 102.774 61.7966 102.571 61.636 102.381C61.5162 102.257 61.3791 102.151 61.229 102.067C61.5091 102.043 61.7715 101.92 61.97 101.721C62.1394 101.528 62.2282 101.277 62.218 101.021C62.2217 100.812 62.1651 100.607 62.055 100.43C61.9538 100.265 61.8003 100.139 61.619 100.072C61.3357 99.9914 61.0411 99.9577 60.747 99.9719H59.158V103.72H59.914V102.156H60.067C60.195 102.15 60.3232 102.165 60.447 102.198C60.5341 102.231 60.6119 102.284 60.674 102.354C60.819 102.528 60.9526 102.712 61.074 102.904L61.621 103.719H62.521L62.066 102.989ZM60.473 101.559H59.914V100.609H60.504C60.81 100.609 60.994 100.613 61.056 100.622C61.1653 100.635 61.2663 100.687 61.341 100.768C61.4107 100.854 61.4462 100.962 61.441 101.073C61.4444 101.172 61.4176 101.27 61.364 101.354C61.3129 101.429 61.2383 101.484 61.152 101.512C60.9282 101.554 60.7003 101.569 60.473 101.558" fill="black"/>
</g>
</g>
</g>
</g>
<g id="Group 27">
<path id="Path 27" d="M16.715 103.719V99.9751H15.959V101.444H14.479V99.9751H13.723V103.719H14.479V102.082H15.96V103.719H16.715Z" fill="black"/>
</g>
<g id="Group 28">
<path id="Path 28" d="M20.3449 103.089H18.2529V102.07H20.1329V101.44H18.2529V100.61H20.2729V99.9761H17.4969V103.72H20.3449V103.089Z" fill="black"/>
</g>
<g id="Clip path group_4">
<mask id="mask3_24_47" style="mask-type:luminance" maskUnits="userSpaceOnUse" x="0" y="0" width="71" height="123">
<g id="clip-path_4">
<path id="Path 15_4" d="M0 122.616H70.57V0H0V122.616Z" fill="white"/>
</g>
</mask>
<g mask="url(#mask3_24_47)">
<g id="Group 30">
<g id="Group 29">
<path id="Path 29" d="M65.0221 103.64C65.2199 103.583 65.4016 103.48 65.5531 103.34C65.7366 103.154 65.8736 102.927 65.9531 102.678C66.0349 102.42 66.0734 102.149 66.0671 101.878C66.0746 101.578 66.0334 101.28 65.9451 100.993C65.871 100.769 65.7496 100.564 65.5891 100.391C65.4351 100.228 65.2399 100.109 65.0241 100.047C64.791 99.9913 64.5515 99.9671 64.3121 99.9751H62.9301V103.72H64.3531C64.5787 103.727 64.8042 103.699 65.0221 103.64ZM63.6861 103.089V100.609H64.0261C64.2337 100.602 64.4416 100.614 64.6471 100.645C64.7775 100.67 64.8983 100.731 64.9961 100.821C65.0972 100.922 65.1711 101.047 65.2111 101.184C65.27 101.401 65.296 101.626 65.2881 101.85C65.2945 102.08 65.2685 102.309 65.2111 102.531C65.1775 102.667 65.1085 102.792 65.0111 102.892C64.9241 102.969 64.8192 103.023 64.7061 103.048C64.5556 103.077 64.4023 103.09 64.2491 103.084L63.6861 103.089Z" fill="black"/>
</g>
</g>
</g>
</g>
<g id="Group 31">
<path id="Path 31" d="M11.368 103.719H12.124V100.608H13.232V99.9751H10.257V100.608H11.368V103.719Z" fill="black"/>
</g>
<g id="Clip path group_5">
<mask id="mask4_24_47" style="mask-type:luminance" maskUnits="userSpaceOnUse" x="0" y="0" width="71" height="123">
<g id="clip-path_5">
<path id="Path 15_5" d="M0 122.616H70.57V0H0V122.616Z" fill="white"/>
</g>
</mask>
<g mask="url(#mask4_24_47)">
<g id="Group 35">
<g id="Group 32">
<path id="Path 32" d="M44.404 102.992C44.2444 103.106 44.0498 103.161 43.854 103.147C43.6563 103.158 43.4614 103.096 43.306 102.973C43.1557 102.829 43.0606 102.637 43.037 102.43L42.301 102.502C42.3243 102.868 42.4872 103.21 42.756 103.459C43.0682 103.696 43.4557 103.813 43.847 103.787C44.1248 103.795 44.4014 103.748 44.661 103.649C44.8692 103.566 45.0459 103.419 45.166 103.23C45.2826 103.052 45.3447 102.843 45.345 102.63C45.3527 102.42 45.3007 102.212 45.195 102.03C45.0945 101.868 44.9513 101.736 44.781 101.649C44.5205 101.528 44.2466 101.437 43.965 101.38C43.7181 101.341 43.4806 101.257 43.265 101.13C43.2302 101.103 43.2021 101.069 43.1826 101.03C43.1632 100.99 43.1531 100.947 43.153 100.903C43.1519 100.857 43.1623 100.812 43.1832 100.772C43.2042 100.731 43.2351 100.696 43.273 100.671C43.426 100.572 43.6063 100.525 43.788 100.535C43.9574 100.523 44.126 100.567 44.267 100.662C44.3856 100.77 44.4598 100.918 44.475 101.077L45.231 101.044C45.2321 100.888 45.2 100.734 45.1367 100.592C45.0734 100.45 44.9804 100.323 44.864 100.22C44.5591 99.9927 44.1824 99.883 43.803 99.911C43.5514 99.9043 43.3011 99.9486 43.067 100.041C42.8765 100.117 42.7137 100.249 42.6 100.42C42.494 100.578 42.4376 100.765 42.438 100.955C42.4365 101.098 42.4666 101.24 42.526 101.37C42.5855 101.5 42.6729 101.616 42.782 101.708C43.0345 101.895 43.3267 102.022 43.636 102.078C43.95 102.157 44.153 102.211 44.241 102.242C44.344 102.272 44.4376 102.328 44.513 102.404C44.5648 102.468 44.5921 102.548 44.59 102.63C44.5888 102.7 44.5714 102.769 44.5394 102.832C44.5073 102.895 44.4613 102.949 44.405 102.991" fill="black"/>
</g>
<g id="Group 33">
<path id="Path 33" d="M40.958 101.242L41.098 101.542C41.2392 101.493 41.3685 101.415 41.477 101.313C41.5725 101.224 41.6428 101.112 41.681 100.987C41.7212 100.826 41.7391 100.66 41.734 100.495V99.9868H41.017V100.705H41.364C41.3666 100.826 41.3317 100.946 41.264 101.047C41.1846 101.142 41.0777 101.21 40.958 101.242Z" fill="black"/>
</g>
<g id="Group 34">
<path id="Path 34" d="M68.6211 102.992C68.4615 103.106 68.2669 103.161 68.0711 103.147C67.8733 103.158 67.6784 103.096 67.5231 102.973C67.3728 102.829 67.2776 102.637 67.2541 102.43L66.5181 102.502C66.5414 102.868 66.7043 103.21 66.9731 103.459C67.2852 103.696 67.6727 103.813 68.0641 103.787C68.3418 103.795 68.6184 103.748 68.8781 103.649C69.0865 103.566 69.2635 103.419 69.3841 103.23C69.5003 103.051 69.5625 102.843 69.5631 102.63C69.5708 102.42 69.5187 102.212 69.4131 102.03C69.3125 101.868 69.1693 101.736 68.9991 101.649C68.7386 101.528 68.4647 101.437 68.1831 101.38C67.9378 101.341 67.7021 101.256 67.4881 101.13C67.4532 101.103 67.425 101.069 67.4056 101.03C67.3862 100.99 67.3761 100.947 67.3761 100.903C67.3749 100.857 67.3853 100.812 67.4063 100.772C67.4273 100.731 67.4581 100.696 67.4961 100.671C67.6493 100.572 67.83 100.525 68.0121 100.535C68.1811 100.523 68.3494 100.568 68.4901 100.662C68.6087 100.77 68.6828 100.918 68.6981 101.077L69.4541 101.044C69.4544 100.888 69.4213 100.734 69.357 100.592C69.2926 100.449 69.1985 100.323 69.0811 100.22C68.7761 99.9927 68.3994 99.883 68.0201 99.911C67.7681 99.9042 67.5174 99.9484 67.2831 100.041C67.0926 100.117 66.9297 100.249 66.8161 100.42C66.7104 100.578 66.654 100.765 66.6541 100.955C66.6526 101.098 66.6828 101.24 66.7424 101.37C66.8021 101.5 66.8897 101.616 66.9991 101.708C67.2511 101.895 67.5431 102.022 67.8521 102.078C68.1661 102.157 68.3691 102.211 68.4571 102.242C68.56 102.272 68.6536 102.328 68.7291 102.404C68.7814 102.468 68.8091 102.548 68.8071 102.63C68.8058 102.7 68.7885 102.769 68.7564 102.832C68.7243 102.895 68.6784 102.949 68.6221 102.991" fill="black"/>
</g>
</g>
</g>
</g>
<g id="Group 36">
<path id="Path 36" d="M61.7419 106.885V106.252H58.9609V109.996H61.8089V109.366H59.7169V108.346H61.5969V107.715H59.7169V106.885H61.7419Z" fill="black"/>
</g>
<path id="Path 37" d="M62.583 109.996H63.301V109.278H62.583V109.996Z" fill="black"/>
<path id="Path 38" d="M53.996 109.996H54.752V106.252H53.996V109.996Z" fill="black"/>
<g id="Clip path group_6">
<mask id="mask5_24_47" style="mask-type:luminance" maskUnits="userSpaceOnUse" x="0" y="0" width="71" height="123">
<g id="clip-path_6">
<path id="Path 15_6" d="M0 122.616H70.57V0H0V122.616Z" fill="white"/>
</g>
</mask>
<g mask="url(#mask5_24_47)">
<g id="Group 38">
<g id="Group 37">
<path id="Path 39" d="M57.384 109.269C57.2243 109.383 57.0297 109.438 56.834 109.423C56.6364 109.434 56.4416 109.373 56.286 109.25C56.1363 109.106 56.0412 108.914 56.017 108.707L55.281 108.779C55.304 109.145 55.467 109.488 55.736 109.736C56.0482 109.974 56.4357 110.09 56.827 110.064C57.1048 110.072 57.3814 110.025 57.641 109.926C57.849 109.843 58.0256 109.696 58.146 109.507C58.2625 109.329 58.3247 109.12 58.325 108.907C58.333 108.697 58.2813 108.489 58.176 108.307C58.0753 108.145 57.9321 108.013 57.762 107.926C57.5015 107.805 57.2276 107.715 56.946 107.657C56.6991 107.619 56.4616 107.534 56.246 107.407C56.2113 107.38 56.1832 107.346 56.1638 107.307C56.1444 107.267 56.1342 107.224 56.134 107.18C56.1332 107.134 56.1438 107.089 56.1649 107.048C56.186 107.008 56.217 106.973 56.255 106.947C56.4082 106.849 56.5884 106.802 56.77 106.812C56.9393 106.8 57.1079 106.844 57.249 106.938C57.3676 107.046 57.4418 107.194 57.457 107.353L58.213 107.32C58.2136 107.165 58.181 107.011 58.1174 106.869C58.0537 106.727 57.9605 106.6 57.844 106.497C57.539 106.27 57.1623 106.16 56.783 106.188C56.5314 106.182 56.2811 106.226 56.047 106.318C55.8564 106.395 55.6932 106.527 55.579 106.697C55.4732 106.856 55.4169 107.042 55.417 107.232C55.4156 107.376 55.4456 107.517 55.5051 107.648C55.5645 107.778 55.6519 107.894 55.761 107.986C56.0137 108.173 56.3058 108.3 56.615 108.356C56.929 108.434 57.132 108.488 57.22 108.519C57.3231 108.549 57.4168 108.605 57.492 108.681C57.544 108.745 57.5713 108.825 57.569 108.907C57.5679 108.978 57.5506 109.047 57.5185 109.109C57.4865 109.172 57.4404 109.227 57.384 109.269Z" fill="black"/>
</g>
</g>
</g>
</g>
<path id="Path 41" d="M63.301 107.284H62.583V108.002H63.301V107.284Z" fill="black"/>
<g id="Group 39">
<path id="Path 42" d="M19.104 106.885V106.252H16.537V109.996H17.293V108.405H18.856V107.771H17.293V106.885H19.104Z" fill="black"/>
</g>
<g id="Clip path group_7">
<mask id="mask6_24_47" style="mask-type:luminance" maskUnits="userSpaceOnUse" x="0" y="0" width="71" height="123">
<g id="clip-path_7">
<path id="Path 15_7" d="M0 122.616H70.57V0H0V122.616Z" fill="white"/>
</g>
</mask>
<g mask="url(#mask6_24_47)">
<g id="Group 45">
<g id="Group 40">
<path id="Path 43" d="M53.153 109.266C53.0277 109.051 52.8838 108.848 52.723 108.658C52.6033 108.534 52.4662 108.429 52.316 108.344C52.5962 108.32 52.8587 108.197 53.057 107.997C53.2265 107.804 53.3153 107.554 53.305 107.297C53.3087 107.089 53.2517 106.884 53.141 106.707C53.0404 106.542 52.8871 106.416 52.706 106.349C52.4227 106.269 52.1282 106.235 51.834 106.249H50.244V109.996H51.001V108.433H51.154C51.2824 108.428 51.4109 108.442 51.535 108.475C51.6221 108.508 51.7 108.562 51.762 108.631C51.9074 108.806 52.041 108.989 52.162 109.181L52.709 109.995H53.609L53.153 109.266ZM51.56 107.836H51.001V106.886H51.591C51.897 106.886 52.081 106.891 52.143 106.899C52.2525 106.913 52.3535 106.965 52.428 107.046C52.4975 107.132 52.5331 107.241 52.528 107.351C52.5315 107.451 52.5046 107.549 52.451 107.632C52.3998 107.707 52.3252 107.763 52.239 107.79C52.0153 107.832 51.7874 107.848 51.56 107.836Z" fill="black"/>
</g>
<g id="Group 41">
<path id="Path 44" d="M48.8649 106.308C48.5676 106.259 48.2661 106.24 47.9649 106.252H46.7529V109.996H47.5089V108.583H48.0019C48.2629 108.589 48.524 108.572 48.7819 108.532C48.926 108.499 49.062 108.438 49.1819 108.352C49.3163 108.256 49.4257 108.13 49.5009 107.983C49.5893 107.803 49.6323 107.604 49.6259 107.403C49.6358 107.142 49.5576 106.886 49.4039 106.675C49.2712 106.495 49.0811 106.366 48.8649 106.308ZM48.7559 107.708C48.6977 107.792 48.6154 107.855 48.5199 107.891C48.3242 107.942 48.1218 107.962 47.9199 107.95H47.5059V106.885H47.8709C48.0526 106.88 48.2345 106.888 48.4149 106.91C48.5306 106.93 48.6362 106.989 48.7149 107.076C48.7967 107.169 48.8397 107.29 48.8349 107.414C48.8371 107.518 48.807 107.619 48.7489 107.705" fill="black"/>
</g>
<g id="Group 42">
<path id="Path 45" d="M23.206 108.129C23.221 107.87 23.1845 107.61 23.0987 107.365C23.0128 107.12 22.8794 106.895 22.706 106.702C22.5332 106.529 22.3262 106.394 22.0982 106.305C21.8703 106.217 21.6263 106.177 21.382 106.188C21.1057 106.183 20.8312 106.233 20.575 106.337C20.3923 106.415 20.2276 106.53 20.091 106.674C19.9453 106.823 19.8271 106.997 19.742 107.187C19.6193 107.492 19.5611 107.819 19.571 108.147C19.5568 108.401 19.5931 108.656 19.6777 108.896C19.7623 109.136 19.8936 109.358 20.064 109.547C20.2377 109.72 20.4455 109.854 20.6742 109.942C20.9029 110.03 21.1473 110.069 21.392 110.057C21.6355 110.069 21.8789 110.03 22.1065 109.943C22.334 109.855 22.5407 109.72 22.713 109.548C22.8844 109.355 23.0162 109.131 23.1008 108.887C23.1854 108.644 23.2212 108.386 23.206 108.129ZM22.134 109.088C22.0422 109.194 21.928 109.278 21.7997 109.334C21.6713 109.391 21.5321 109.418 21.392 109.414C21.2512 109.417 21.1113 109.39 20.9824 109.333C20.8534 109.276 20.7386 109.192 20.646 109.086C20.4321 108.812 20.3276 108.468 20.353 108.122C20.3262 107.776 20.428 107.432 20.639 107.156C20.733 107.05 20.8493 106.966 20.9795 106.911C21.1097 106.855 21.2506 106.83 21.392 106.835C21.5326 106.829 21.6728 106.855 21.8025 106.909C21.9322 106.964 22.0481 107.047 22.142 107.152C22.3504 107.427 22.4507 107.768 22.424 108.112C22.4505 108.462 22.3473 108.809 22.134 109.088Z" fill="black"/>
</g>
<g id="Group 43">
<path id="Path 46" d="M25.714 109.181L26.261 109.995H27.161L26.704 109.265C26.5796 109.049 26.4367 108.844 26.277 108.653C26.1577 108.53 26.0213 108.424 25.872 108.339C26.152 108.314 26.4143 108.191 26.613 107.992C26.7824 107.799 26.8712 107.549 26.861 107.292C26.8643 107.084 26.8073 106.879 26.697 106.702C26.5948 106.541 26.4418 106.418 26.262 106.353C25.9787 106.273 25.6841 106.239 25.39 106.253H23.798V109.996H24.554V108.433H24.707C24.8354 108.428 24.9639 108.442 25.088 108.475C25.175 108.508 25.2528 108.562 25.315 108.631C25.4599 108.806 25.5936 108.989 25.715 109.181M24.555 107.835V106.885H25.145C25.451 106.885 25.635 106.885 25.697 106.898C25.8063 106.911 25.9073 106.963 25.982 107.044C26.0515 107.13 26.0871 107.239 26.082 107.349C26.0855 107.448 26.0586 107.547 26.005 107.63C25.9536 107.705 25.8791 107.76 25.793 107.788C25.5689 107.83 25.3407 107.846 25.113 107.834L24.555 107.835Z" fill="black"/>
</g>
<g id="Group 44">
<path id="Path 47" d="M44.495 108.631C44.6402 108.806 44.7739 108.989 44.895 109.181L45.44 109.997H46.34L45.887 109.264C45.7604 109.05 45.6155 108.847 45.454 108.658C45.3364 108.535 45.2017 108.429 45.054 108.344C45.3341 108.32 45.5966 108.197 45.795 107.998C45.9645 107.805 46.0533 107.555 46.043 107.298C46.0465 107.09 45.9896 106.885 45.879 106.708C45.7787 106.543 45.6254 106.416 45.444 106.349C45.1607 106.269 44.8662 106.235 44.572 106.249H42.978V109.997H43.735V108.433H43.888C44.0164 108.428 44.1449 108.442 44.269 108.475C44.356 108.508 44.4329 108.562 44.495 108.631ZM43.735 107.831V106.881H44.325C44.631 106.881 44.815 106.886 44.877 106.894C44.9863 106.908 45.0874 106.959 45.162 107.04C45.2316 107.126 45.2671 107.235 45.262 107.345C45.2655 107.445 45.2387 107.543 45.185 107.626C45.1338 107.701 45.0592 107.757 44.973 107.784C44.749 107.826 44.5207 107.842 44.293 107.83L43.735 107.831Z" fill="black"/>
</g>
</g>
</g>
</g>
<g id="Group 46">
<path id="Path 49" d="M31.874 109.366H29.782V108.347H31.662V107.717H29.782V106.886H31.802V106.253H29.026V109.997H31.874V109.366Z" fill="black"/>
</g>
<g id="Group 47">
<path id="Path 50" d="M37.891 109.996V106.885H39.001V106.252H36.024V106.885H37.135V109.996H37.891Z" fill="black"/>
</g>
<g id="Group 48">
<path id="Path 51" d="M42.3351 109.366H40.2431V108.347H42.1231V107.717H40.2431V106.886H42.2631V106.253H39.4871V109.997H42.3351V109.366Z" fill="black"/>
</g>
<g id="Group 49">
<path id="Path 52" d="M33.229 107.555L34.729 109.996H35.487V106.252H34.787V108.752L33.255 106.252H32.519V109.996H33.219L33.229 107.555Z" fill="black"/>
</g>
<g id="Group 50">
<path id="Path 53" d="M67.722 112.529V116.273H70.569V115.643H68.479V114.623H70.358V113.993H68.479V113.162H70.499V112.529H67.722Z" fill="black"/>
</g>
<g id="Group 51">
<path id="Path 54" d="M35.0771 112.529H32.1021V113.162H33.2131V116.273H33.9691V113.162H35.0771V112.529Z" fill="black"/>
</g>
<g id="Clip path group_8">
<mask id="mask7_24_47" style="mask-type:luminance" maskUnits="userSpaceOnUse" x="0" y="0" width="71" height="123">
<g id="clip-path_8">
<path id="Path 15_8" d="M0 122.616H70.57V0H0V122.616Z" fill="white"/>
</g>
</mask>
<g mask="url(#mask7_24_47)">
<g id="Group 54">
<g id="Group 52">
<path id="Path 55" d="M39.9999 112.978C39.827 112.805 39.6199 112.671 39.392 112.582C39.164 112.494 38.9202 112.454 38.6759 112.465C38.3996 112.46 38.1251 112.511 37.8689 112.614C37.6859 112.692 37.5209 112.807 37.3839 112.951C37.2386 113.1 37.1207 113.274 37.0359 113.464C36.9128 113.769 36.8542 114.096 36.8639 114.424C36.8501 114.679 36.8868 114.935 36.9721 115.175C37.0574 115.416 37.1896 115.638 37.3609 115.827C37.5348 116 37.7427 116.134 37.9713 116.222C38.2 116.309 38.4444 116.348 38.6889 116.336C38.932 116.348 39.1748 116.308 39.4017 116.22C39.6285 116.132 39.8344 115.997 40.0059 115.824C40.1776 115.631 40.3093 115.406 40.3936 115.162C40.4778 114.918 40.513 114.659 40.4969 114.401C40.5118 114.142 40.4753 113.883 40.3895 113.638C40.3036 113.393 40.1702 113.167 39.9969 112.974M39.4219 115.361C39.33 115.467 39.2157 115.551 39.0874 115.607C38.9592 115.664 38.82 115.691 38.6799 115.687C38.5391 115.691 38.3993 115.663 38.2703 115.606C38.1414 115.55 38.0265 115.465 37.9339 115.359C37.7225 115.087 37.6192 114.745 37.6439 114.401C37.6168 114.054 37.7186 113.708 37.9299 113.431C38.0244 113.326 38.1409 113.242 38.2712 113.187C38.4015 113.132 38.5425 113.106 38.6839 113.111C38.8246 113.105 38.9648 113.131 39.0945 113.186C39.2241 113.24 39.3401 113.323 39.4339 113.428C39.6425 113.703 39.7428 114.044 39.7159 114.388C39.7424 114.738 39.6392 115.086 39.4259 115.365" fill="black"/>
</g>
<g id="Group 53">
<path id="Path 56" d="M66.6009 112.946C66.4473 112.782 66.2524 112.663 66.0369 112.602C65.8037 112.545 65.5638 112.52 65.3239 112.527H63.9419V116.274H65.3649C65.5906 116.28 65.816 116.254 66.0339 116.195C66.2317 116.137 66.4134 116.034 66.5649 115.895C66.7487 115.709 66.8858 115.482 66.9649 115.233C67.0472 114.974 67.0861 114.704 67.0799 114.433C67.0859 114.134 67.0437 113.837 66.9549 113.553C66.8812 113.327 66.759 113.119 66.5969 112.946M66.2189 115.09C66.1855 115.226 66.1165 115.351 66.0189 115.452C65.9317 115.528 65.8269 115.582 65.7139 115.608C65.5634 115.637 65.4101 115.649 65.2569 115.644H64.6919V113.163H65.0319C65.2402 113.155 65.4488 113.167 65.6549 113.199C65.7857 113.224 65.9069 113.284 66.0049 113.375C66.1057 113.476 66.1796 113.601 66.2199 113.738C66.2789 113.955 66.3048 114.18 66.2969 114.405C66.3037 114.635 66.2768 114.866 66.2189 115.09Z" fill="black"/>
</g>
</g>
</g>
</g>
<path id="Path 58" d="M36.298 112.528H35.542V116.272H36.298V112.528Z" fill="black"/>
<g id="Group 55">
<path id="Path 59" d="M61.246 112.529L59.787 116.273H60.587L60.896 115.423H62.396L62.723 116.273H63.545L62.045 112.529H61.246ZM61.131 114.792L61.636 113.403L62.152 114.792H61.131Z" fill="black"/>
</g>
<g id="Group 56">
<path id="Path 60" d="M52.927 113.162H54.038V116.273H54.794V113.162H55.902V112.529H52.927V113.162Z" fill="black"/>
</g>
<g id="Group 57">
<path id="Path 61" d="M45.942 112.529L44.484 116.273H45.284L45.593 115.423H47.093L47.42 116.273H48.242L46.741 112.529H45.942ZM45.827 114.792L46.333 113.403L46.849 114.792H45.827Z" fill="black"/>
</g>
<g id="Clip path group_9">
<mask id="mask8_24_47" style="mask-type:luminance" maskUnits="userSpaceOnUse" x="0" y="0" width="71" height="123">
<g id="clip-path_9">
<path id="Path 15_9" d="M0 122.616H70.57V0H0V122.616Z" fill="white"/>
</g>
</mask>
<g mask="url(#mask8_24_47)">
<g id="Group 59">
<g id="Group 58">
<path id="Path 62" d="M58.8709 114.935C58.752 114.811 58.6155 114.705 58.4659 114.621C58.7455 114.598 59.0079 114.477 59.2069 114.279C59.3764 114.086 59.4652 113.835 59.4549 113.579C59.4586 113.371 59.402 113.166 59.2919 112.989C59.1909 112.824 59.0374 112.697 58.8559 112.63C58.5726 112.55 58.2781 112.516 57.9839 112.53H56.3929V116.273H57.1469V114.71H57.2999C57.4281 114.705 57.5562 114.719 57.6799 114.753C57.7671 114.786 57.845 114.839 57.9069 114.909C58.0519 115.084 58.1856 115.268 58.3069 115.46L58.8529 116.274H59.7529L59.3009 115.542C59.1759 115.327 59.032 115.124 58.8709 114.935ZM57.7079 114.112H57.1469V113.162H57.7369C58.0429 113.162 58.2269 113.166 58.2889 113.175C58.3985 113.188 58.4996 113.24 58.5739 113.322C58.6439 113.408 58.6795 113.516 58.6739 113.627C58.6774 113.726 58.6505 113.824 58.5969 113.907C58.5458 113.982 58.4713 114.038 58.3849 114.066C58.1612 114.107 57.9333 114.123 57.7059 114.111" fill="black"/>
</g>
</g>
</g>
</g>
<g id="Group 60">
<path id="Path 64" d="M49.418 112.559H48.662V116.272H51.298V115.642H49.418V112.559Z" fill="black"/>
</g>
<g id="Group 61">
<path id="Path 65" d="M14.474 113.162H15.585V116.273H16.342V113.162H17.449V112.529H14.474V113.162Z" fill="black"/>
</g>
<path id="Path 66" d="M9.48901 116.273H10.245V112.529H9.48901V116.273Z" fill="black"/>
<g id="Group 62">
<path id="Path 67" d="M13.241 115.029L11.708 112.529H10.973V116.273H11.673V113.831L13.184 116.273H13.943V112.528H13.243L13.241 115.029Z" fill="black"/>
</g>
<g id="Group 63">
<path id="Path 68" d="M41.802 113.831L43.302 116.272H44.06V112.528H43.36V115.028L41.828 112.528H41.092V116.272H41.792L41.802 113.831Z" fill="black"/>
</g>
<g id="Group 64">
<path id="Path 69" d="M30.059 112.529L28.601 116.273H29.401L29.71 115.423H31.21L31.537 116.273H32.359L30.859 112.529H30.059ZM29.944 114.792L30.45 113.403L30.966 114.792H29.944Z" fill="black"/>
</g>
<g id="Group 65">
<path id="Path 70" d="M27.48 115.029L25.947 112.529H25.212V116.273H25.912V113.831L27.424 116.273H28.182V112.528H27.482L27.48 115.029Z" fill="black"/>
</g>
<g id="Group 66">
<path id="Path 71" d="M18.694 114.623H20.574V113.992H18.694V113.162H20.714V112.532H17.938V116.273H20.786V115.642H18.694V114.623Z" fill="black"/>
</g>
<g id="Group 74">
<g id="Group 67">
<path id="Path 72" d="M23.908 114.935C23.7904 114.812 23.6557 114.706 23.508 114.621C23.7858 114.597 24.0463 114.476 24.244 114.279C24.4134 114.086 24.5022 113.835 24.492 113.579C24.4956 113.371 24.439 113.166 24.329 112.989C24.2279 112.824 24.0744 112.697 23.893 112.63C23.6096 112.55 23.3151 112.516 23.021 112.53H21.429V116.273H22.184V114.71H22.337C22.4654 114.705 22.5939 114.719 22.718 114.753C22.805 114.786 22.8828 114.839 22.945 114.909C23.0901 115.084 23.2237 115.268 23.345 115.46L23.892 116.274H24.792L24.338 115.542C24.2127 115.327 24.0688 115.124 23.908 114.935ZM22.745 114.112H22.184V113.162H22.774C23.08 113.162 23.264 113.166 23.326 113.175C23.4355 113.188 23.5366 113.24 23.611 113.322C23.6809 113.408 23.7165 113.516 23.711 113.627C23.7144 113.726 23.6876 113.824 23.634 113.907C23.5828 113.982 23.5083 114.038 23.422 114.066C23.1982 114.107 22.9703 114.123 22.743 114.111" fill="black"/>
</g>
</g>
</g>
</g>
</g>
</svg>
