<svg width="339" height="398" viewBox="0 0 339 398" fill="none" xmlns="http://www.w3.org/2000/svg">
<g id="THJ_Homepage_OPT1">
<g id="Group 195">
<path id="Path 64" d="M45.7093 320.159L169.373 397.992L293.036 320.159C307.018 311.387 318.551 299.175 326.548 284.676C334.545 270.177 338.743 253.867 338.745 237.284V75.63C338.741 55.5743 330.824 36.3412 316.735 22.159C302.646 7.97675 283.538 0.00632493 263.612 0L75.1418 0C55.2143 0.00421676 36.1042 7.9737 22.0133 22.1562C7.92249 36.3386 0.00439216 55.5729 0.000202635 75.63V236.99C-0.0335344 253.62 4.14596 269.985 12.1439 284.538C20.1419 299.09 31.6943 311.35 45.7093 320.159ZM9.36324 75.63C9.37045 66.9151 11.0865 58.2873 14.413 50.2412C17.7394 42.1951 22.6106 34.8889 28.7478 28.7413C34.885 22.5938 42.1674 17.7258 50.1774 14.4164C58.1874 11.107 66.7675 9.4212 75.426 9.45573H263.904C281.424 9.45784 298.227 16.4639 310.615 28.9332C323.004 41.4025 329.965 58.3139 329.967 75.9481V237.284C330.007 252.294 326.231 267.065 318.998 280.192C311.764 293.318 301.315 304.364 288.643 312.278L169.673 386.961L50.7029 312.278C37.9946 304.325 27.5236 293.227 20.2893 280.042C13.0549 266.858 9.29871 252.027 9.37915 236.966L9.36324 75.63Z" fill="black"/>
<path id="Path 65" d="M98.9317 206.395H157.165V322.043H181.895V206.395H240.444V289.898H264.867V98.0001H240.444V181.503H181.895V71.2155H264.859V46.6338H74.2008V71.2155H157.165V181.503H98.9317V98.0001H74.2008V289.898H98.9317V206.395Z" fill="black"/>
</g>
</g>
</svg>
