<svg width="246" height="78" viewBox="0 0 246 78" fill="none" xmlns="http://www.w3.org/2000/svg">
<g id="Group 191">
<g id="Group 185">
<path id="Path 66" d="M6.10352e-05 65.4073H4.78211V77.1049H7.75826V65.3713H12.5054V62.3767H6.10352e-05V65.4073Z" fill="black"/>
<path id="Path 67" d="M31.9878 64.5523C31.3213 63.8836 30.5414 63.3403 29.6848 62.9479C28.7798 62.554 27.8052 62.3478 26.8192 62.3417C25.8332 62.3355 24.856 62.5294 23.9462 62.9119C23.0829 63.2951 22.2919 63.8257 21.6084 64.4803C20.9355 65.1574 20.3948 65.9556 20.0143 66.8334C19.2587 68.6711 19.2587 70.7356 20.0143 72.5733C20.3865 73.4454 20.9285 74.2336 21.6084 74.8912C22.2827 75.5574 23.0758 76.0895 23.9462 76.4596C25.2856 77.0298 26.7634 77.1853 28.1911 76.9063C29.6187 76.6274 30.9314 75.9266 31.9615 74.8934C32.9917 73.8602 33.6926 72.5415 33.9748 71.1056C34.257 69.6697 34.1078 68.1817 33.5461 66.8316C33.1468 65.9953 32.6211 65.2264 31.9878 64.5523ZM30.7836 71.4692C30.5609 71.9927 30.2356 72.4656 29.827 72.8595C29.4339 73.2597 28.964 73.575 28.4457 73.7863C27.9185 74.0111 27.3536 74.1333 26.7811 74.1462C26.1954 74.1542 25.6152 74.0313 25.0825 73.7863C24.5624 73.5622 24.0926 73.2347 23.7012 72.8235C23.3036 72.4279 22.9903 71.9548 22.7804 71.4332C22.5535 70.9037 22.432 70.3344 22.4228 69.7578C22.4157 69.6024 22.4277 69.4468 22.4586 69.2944C22.4943 69.1513 22.4943 69.0091 22.5292 68.8669C22.6118 68.3724 22.7924 67.8996 23.0602 67.4767C23.2805 67.1253 23.5423 66.802 23.8398 66.5139C24.121 66.2481 24.4443 66.0312 24.7964 65.8723C25.1141 65.711 25.446 65.5797 25.7878 65.48C26.1019 65.4092 26.4226 65.3733 26.7444 65.3729C26.8399 65.3746 26.9349 65.3867 27.0278 65.4089C27.1717 65.4152 27.3143 65.4391 27.4525 65.48C27.5589 65.516 27.7001 65.516 27.8423 65.5511C27.9771 65.5653 28.1088 65.6015 28.2321 65.6582C28.7228 65.8388 29.1785 66.1043 29.5784 66.4428C29.931 66.7434 30.2408 67.0913 30.4993 67.4767C30.7469 67.8327 30.9269 68.2318 31.0303 68.6537C31.1276 69.0502 31.175 69.4574 31.1716 69.8657C31.1224 70.4167 30.9917 70.9572 30.7836 71.4692Z" fill="black"/>
<path id="Path 68" d="M48.7429 68.4378L44.5983 62.3767H41.623V77.1022H44.6341V67.6856L48.7787 73.7468L52.8911 67.6856V77.0986H55.9021V62.3767H52.9233L48.7429 68.4378Z" fill="black"/>
<path id="Path 69" d="M86.009 68.0815H79.2789V62.3767H76.3027V77.1022H79.278V71.041H86.0474V77.1022H88.9878V62.3767H86.0126L86.009 68.0815Z" fill="black"/>
<path id="Path 70" d="M96.1395 77.1337H99.4339L100.497 74.8518H105.527L106.59 77.1337H109.884L103.012 62.3767L96.1395 77.1337ZM101.524 71.8248L103.012 68.5449L104.464 71.8248H101.524Z" fill="black"/>
<path id="Path 71" d="M126.214 68.9372C126.517 68.303 126.674 67.6082 126.674 66.9045C126.674 66.5925 126.638 66.2815 126.568 65.9777C126.492 65.5965 126.372 65.2256 126.21 64.8727C126.02 64.4789 125.769 64.1178 125.466 63.8028C125.22 63.5243 124.933 63.2841 124.616 63.0901C124.332 62.9145 124.036 62.7597 123.73 62.6267C123.641 62.5791 123.545 62.5432 123.447 62.5197C123.341 62.4837 123.199 62.4486 123.057 62.4126C122.93 62.3747 122.799 62.3509 122.667 62.3415C122.563 62.3137 122.456 62.3016 122.348 62.3055H117.006V77.0626H120.017V71.4288H121.575L124.09 77.0626H127.348L124.55 70.7161C125.283 70.3222 125.867 69.6973 126.214 68.9372ZM123.486 67.7602C123.405 67.9136 123.294 68.0493 123.16 68.1594C123.026 68.2695 122.872 68.3519 122.707 68.4018C122.631 68.4464 122.546 68.4708 122.459 68.4729C122.401 68.4937 122.341 68.5058 122.28 68.5089H120.013V65.3712H122.28C122.342 65.3686 122.403 65.381 122.459 65.4072C122.543 65.4261 122.626 65.4499 122.707 65.4783C123.029 65.6016 123.302 65.8267 123.486 66.1198C123.626 66.3704 123.699 66.6528 123.699 66.94C123.699 67.2272 123.626 67.5096 123.486 67.7602Z" fill="black"/>
<path id="Path 72" d="M134.894 65.3713H139.676V77.1013H142.651V65.3362H147.399V62.3767H134.894V65.3713Z" fill="black"/>
<path id="Path 73" d="M157.919 62.3767H154.944V77.1022H165.324V74.1076H157.92L157.919 62.3767Z" fill="black"/>
<path id="Path 74" d="M172.833 77.1022H183.212V74.1076H175.844V71.2552H179.492V68.2606H175.844V65.3371H183.212V62.3767H172.833V77.1022Z" fill="black"/>
<path id="Path 75" d="M197.771 68.3668L194.195 62.3767H190.757L196.283 71.7897V77.0986H199.294V71.7897L204.82 62.3767H201.313L197.771 68.3668Z" fill="black"/>
<path id="Path 76" d="M219.557 70.6125C219.764 70.7436 219.992 70.8399 220.23 70.8977C220.45 70.9548 220.676 70.9788 220.903 70.9688H221.151C221.235 70.9771 221.32 70.9647 221.398 70.9328C221.434 70.9328 221.469 70.8968 221.505 70.8968C221.54 70.8968 221.575 70.8609 221.611 70.8609C221.734 70.823 221.853 70.7754 221.969 70.7187C222.11 70.6476 222.216 70.5756 222.359 70.5045C222.486 70.4207 222.606 70.3252 222.716 70.2193C222.83 70.1159 222.925 69.9943 222.999 69.8593C223.041 69.773 223.089 69.6897 223.142 69.6101C223.2 69.5392 223.237 69.4526 223.248 69.3608C223.252 69.3231 223.265 69.2866 223.284 69.2538C223.32 69.1827 223.32 69.1116 223.354 69.0396C223.383 68.958 223.406 68.8748 223.425 68.7904C223.427 68.7411 223.44 68.6927 223.461 68.6482V62.4124H221.726V68.5447C221.721 68.5825 221.709 68.619 221.69 68.6518C221.69 68.7229 221.654 68.7589 221.654 68.794C221.598 68.9594 221.485 69.0988 221.335 69.1863C221.204 69.255 221.058 69.2917 220.91 69.2934C220.804 69.2934 220.731 69.2574 220.627 69.2574C220.534 69.2318 220.448 69.1829 220.379 69.1152C220.3 69.0479 220.239 68.9624 220.2 68.866C220.156 68.7511 220.132 68.6292 220.13 68.506H218.387V68.7553C218.386 68.8051 218.398 68.8543 218.423 68.8974C218.423 68.9685 218.459 69.0405 218.459 69.1116C218.495 69.1827 218.495 69.2538 218.529 69.3258C218.554 69.3689 218.567 69.4181 218.565 69.4679C218.676 69.7416 218.832 69.9946 219.026 70.2166C219.131 70.2922 219.344 70.4703 219.557 70.6125Z" fill="black"/>
<path id="Path 77" d="M229.581 65.4783L233.336 70.9672H235.072V62.3767H233.336V67.8656L229.545 62.3767H227.81V70.969H229.581V65.4783Z" fill="black"/>
<path id="Path 78" d="M241.235 67.69H242.156L243.609 70.9699H245.522L243.892 67.2617C244.302 66.999 244.632 66.6292 244.849 66.1918C245.026 65.8245 245.123 65.4231 245.132 65.0149C245.126 64.8348 245.102 64.6558 245.062 64.4804C245.023 64.257 244.951 64.0408 244.849 63.8388C244.732 63.6092 244.59 63.3939 244.424 63.1972C244.277 63.0347 244.11 62.8911 243.928 62.7698C243.758 62.6723 243.58 62.5889 243.397 62.5206C243.338 62.505 243.278 62.493 243.218 62.4846C243.148 62.4486 243.076 62.4486 243.005 62.4135C242.927 62.3816 242.842 62.3693 242.758 62.3775C242.698 62.3691 242.638 62.3571 242.579 62.3415H239.464V70.9339H241.2V67.6891L241.235 67.69ZM241.235 64.0908H242.652C242.723 64.0908 242.759 64.1268 242.794 64.1268C242.983 64.2073 243.144 64.3442 243.254 64.5191C243.319 64.6651 243.355 64.8225 243.36 64.9825C243.359 65.1429 243.323 65.3011 243.254 65.4459C243.213 65.5394 243.149 65.6213 243.069 65.684C242.988 65.7468 242.894 65.7887 242.794 65.8058C242.758 65.8058 242.723 65.8418 242.652 65.8418C242.614 65.8401 242.576 65.8529 242.546 65.8778H241.235V64.0908Z" fill="black"/>
<path id="Rectangle 5" d="M245.523 75.0345H218.601V77.5657H245.523V75.0345Z" fill="black"/>
</g>
</g>
</svg>
