<svg width="428" height="63" viewBox="0 0 428 63" fill="none" xmlns="http://www.w3.org/2000/svg">
<g id="THJ_Homepage_OPT1">
<g id="Group 204">
<g id="Group 185">
<g id="Group 184">
<path id="Path 64" d="M7.23554 50.6795L26.8108 63L46.3861 50.6795C48.5994 49.2908 50.425 47.3579 51.6909 45.0628C52.9567 42.7676 53.6212 40.1859 53.6216 37.5608V11.9718C53.6209 8.79712 52.3677 5.75262 50.1375 3.50765C47.9073 1.26268 44.8825 0.0010012 41.7283 0L11.8945 0C8.74013 0.000667491 5.7151 1.2622 3.4846 3.5072C1.25409 5.75221 0.000695256 8.7969 3.2076e-05 11.9718V37.5142C-0.00530832 40.1468 0.656284 42.7372 1.92232 45.0408C3.18836 47.3444 5.01704 49.2851 7.23554 50.6795ZM1.48215 11.9718C1.48329 10.5923 1.75494 9.22658 2.2815 7.95292C2.80805 6.67927 3.57914 5.52273 4.55063 4.5496C5.52212 3.57648 6.67488 2.8059 7.94282 2.28204C9.21076 1.75817 10.5689 1.49133 11.9395 1.49679H41.7746C44.548 1.49713 47.2077 2.60616 49.1688 4.57998C51.1298 6.5538 52.2317 9.23078 52.232 12.0222V37.5608C52.2383 39.9368 51.6406 42.275 50.4956 44.3528C49.3507 46.4307 47.6966 48.1792 45.6907 49.4319L26.8583 61.254L8.026 49.4319C6.01435 48.1731 4.35685 46.4163 3.21168 44.3293C2.06652 42.2422 1.47194 39.8946 1.48467 37.5105L1.48215 11.9718Z" fill="white"/>
<path id="Path 65" d="M15.6603 32.6712H24.8783V50.9777H28.7931V32.6712H38.061V45.8893H41.9271V15.5129H38.061V28.731H28.7931V11.273H41.9258V7.38184H11.7456V11.273H24.8783V28.731H15.6603V15.5129H11.7456V45.8893H15.6603V32.6712Z" fill="white"/>
</g>
<path id="Path 66" d="M83.9413 24.3527H90.6315V40.7179H94.7952V24.3023H101.437V20.1128H83.9413V24.3527Z" fill="white"/>
<path id="Path 67" d="M128.693 23.1569C127.76 22.2214 126.669 21.4612 125.471 20.9123C124.205 20.3613 122.841 20.0728 121.462 20.0642C120.082 20.0555 118.715 20.3269 117.442 20.862C116.235 21.398 115.128 22.1404 114.172 23.0562C113.23 24.0035 112.474 25.1201 111.942 26.3481C110.885 28.9192 110.885 31.8074 111.942 34.3785C112.462 35.5985 113.221 36.7012 114.172 37.6213C115.115 38.5533 116.225 39.2977 117.442 39.8155C119.316 40.6132 121.384 40.8307 123.381 40.4404C125.378 40.0502 127.215 39.0697 128.656 37.6243C130.097 36.1789 131.078 34.334 131.473 32.3251C131.868 30.3162 131.659 28.2345 130.873 26.3456C130.314 25.1757 129.579 24.1 128.693 23.1569ZM127.008 32.8338C126.697 33.5662 126.241 34.2278 125.67 34.7788C125.12 35.3387 124.462 35.7799 123.737 36.0754C123 36.39 122.21 36.5609 121.409 36.579C120.589 36.5902 119.778 36.4182 119.032 36.0754C118.305 35.7619 117.647 35.3038 117.1 34.7284C116.543 34.175 116.105 33.5132 115.812 32.7835C115.494 32.0426 115.324 31.2462 115.311 30.4395C115.301 30.2221 115.318 30.0043 115.361 29.7911C115.411 29.591 115.411 29.3921 115.46 29.1932C115.576 28.5013 115.828 27.8398 116.203 27.2482C116.511 26.7565 116.877 26.3043 117.294 25.9013C117.687 25.5293 118.139 25.226 118.632 25.0037C119.076 24.7779 119.541 24.5942 120.019 24.4548C120.458 24.3557 120.907 24.3055 121.357 24.305C121.491 24.3074 121.624 24.3243 121.754 24.3554C121.955 24.3642 122.155 24.3976 122.348 24.4548C122.497 24.5052 122.694 24.5052 122.893 24.5543C123.082 24.5741 123.266 24.6247 123.438 24.7041C124.125 24.9568 124.763 25.3283 125.322 25.8018C125.815 26.2223 126.249 26.709 126.61 27.2482C126.957 27.7463 127.209 28.3046 127.353 28.8948C127.489 29.4495 127.556 30.0192 127.551 30.5905C127.482 31.3614 127.299 32.1175 127.008 32.8338Z" fill="white"/>
<path id="Path 68" d="M152.134 28.5925L146.335 20.1128H142.173V40.7141H146.385V27.5401L152.184 36.0198L157.937 27.5401V40.7091H162.149V20.1128H157.982L152.134 28.5925Z" fill="white"/>
<path id="Path 69" d="M204.27 28.094H194.854V20.1128H190.69V40.7141H194.853V32.2344H204.323V40.7141H208.437V20.1128H204.275L204.27 28.094Z" fill="white"/>
<path id="Path 70" d="M218.442 40.7582H223.051L224.538 37.5657H231.575L233.062 40.7582H237.671L228.057 20.1128L218.442 40.7582ZM225.976 33.3309L228.057 28.7423L230.089 33.3309H225.976Z" fill="white"/>
<path id="Path 71" d="M260.517 29.2915C260.941 28.4043 261.161 27.4323 261.161 26.4477C261.161 26.0113 261.111 25.5762 261.012 25.1511C260.906 24.6179 260.738 24.099 260.512 23.6052C260.246 23.0543 259.894 22.5492 259.471 22.1084C259.126 21.7188 258.725 21.3828 258.282 21.1114C257.885 20.8657 257.471 20.6491 257.043 20.4631C256.917 20.3965 256.784 20.3462 256.646 20.3133C256.497 20.2629 256.3 20.2138 256.101 20.1635C255.923 20.1105 255.74 20.0772 255.555 20.064C255.41 20.0252 255.259 20.0082 255.109 20.0137H247.634V40.6591H251.847V32.7773H254.027L257.545 40.6591H262.104L258.189 31.7803C259.215 31.2292 260.032 30.355 260.517 29.2915ZM256.701 27.6449C256.587 27.8595 256.432 28.0493 256.245 28.2034C256.058 28.3574 255.842 28.4727 255.61 28.5425C255.505 28.6049 255.386 28.6391 255.264 28.642C255.183 28.671 255.099 28.688 255.014 28.6923H251.842V24.3026H255.014C255.1 24.299 255.186 24.3163 255.264 24.353C255.381 24.3795 255.497 24.4127 255.61 24.4525C256.061 24.625 256.444 24.94 256.701 25.35C256.896 25.7006 256.998 26.0957 256.998 26.4975C256.998 26.8993 256.896 27.2943 256.701 27.6449Z" fill="white"/>
<path id="Path 72" d="M272.661 24.3023H279.351V40.7129H283.513V24.2532H290.155V20.1128H272.661V24.3023Z" fill="white"/>
<path id="Path 73" d="M304.874 20.1128H300.711V40.7141H315.232V36.5246H304.875L304.874 20.1128Z" fill="white"/>
<path id="Path 74" d="M325.738 40.7141H340.259V36.5246H329.95V32.534H335.054V28.3445H329.95V24.2545H340.259V20.1128H325.738V40.7141Z" fill="white"/>
<path id="Path 75" d="M360.627 28.4931L355.624 20.1128H350.815L358.546 33.2818V40.7091H362.758V33.2818L370.489 20.1128H365.582L360.627 28.4931Z" fill="white"/>
<path id="Path 76" d="M391.106 31.6356C391.396 31.8191 391.714 31.9538 392.047 32.0347C392.355 32.1145 392.672 32.1481 392.989 32.1341H393.336C393.453 32.1457 393.572 32.1284 393.682 32.0838C393.732 32.0838 393.781 32.0334 393.831 32.0334C393.881 32.0334 393.93 31.9831 393.98 31.9831C394.151 31.9301 394.319 31.8636 394.48 31.7842C394.678 31.6847 394.827 31.584 395.025 31.4846C395.204 31.3673 395.371 31.2338 395.526 31.0855C395.685 30.9409 395.819 30.7707 395.922 30.582C395.98 30.4612 396.047 30.3447 396.121 30.2333C396.203 30.1341 396.255 30.0129 396.27 29.8845C396.276 29.8317 396.293 29.7807 396.32 29.7348C396.37 29.6353 396.37 29.5358 396.419 29.4351C396.458 29.3209 396.491 29.2045 396.518 29.0864C396.521 29.0174 396.538 28.9498 396.568 28.8875V20.1636H394.14V28.7428C394.134 28.7956 394.117 28.8466 394.09 28.8926C394.09 28.992 394.04 29.0424 394.04 29.0915C393.962 29.3229 393.803 29.5179 393.593 29.6403C393.41 29.7365 393.206 29.7878 392.999 29.7901C392.85 29.7901 392.749 29.7398 392.603 29.7398C392.472 29.704 392.353 29.6356 392.256 29.5409C392.146 29.4468 392.06 29.3271 392.006 29.1922C391.944 29.0314 391.911 28.861 391.907 28.6886H389.47V29.0373C389.468 29.107 389.485 29.1758 389.52 29.2362C389.52 29.3357 389.57 29.4364 389.57 29.5358C389.62 29.6353 389.62 29.7347 389.668 29.8354C389.703 29.8958 389.72 29.9647 389.718 30.0344C389.874 30.4172 390.091 30.7712 390.363 31.0817C390.51 31.1875 390.808 31.4367 391.106 31.6356Z" fill="white"/>
<path id="Path 77" d="M405.13 24.4521L410.383 32.1312H412.812V20.1128H410.383V27.7919L405.08 20.1128H402.652V32.1337H405.13V24.4521Z" fill="white"/>
<path id="Path 78" d="M421.434 27.5467H422.723L424.755 32.1352H427.432L425.152 26.9475C425.724 26.58 426.187 26.0626 426.49 25.4507C426.738 24.9367 426.873 24.3752 426.886 23.8041C426.878 23.5522 426.845 23.3017 426.788 23.0563C426.733 22.7438 426.633 22.4413 426.49 22.1587C426.327 21.8375 426.127 21.5363 425.896 21.2612C425.69 21.0337 425.457 20.8329 425.202 20.6632C424.964 20.5267 424.715 20.4101 424.459 20.3145C424.376 20.2927 424.293 20.2759 424.208 20.2641C424.11 20.2138 424.01 20.2138 423.911 20.1647C423.801 20.1201 423.682 20.1028 423.564 20.1143C423.48 20.1026 423.397 20.0857 423.314 20.064H418.957V32.0849H421.386V27.5454L421.434 27.5467ZM421.434 22.5112H423.417C423.516 22.5112 423.566 22.5616 423.614 22.5616C423.88 22.6742 424.104 22.8657 424.259 23.1104C424.35 23.3147 424.4 23.5349 424.407 23.7587C424.405 23.9832 424.355 24.2045 424.259 24.4071C424.201 24.5379 424.112 24.6524 423.999 24.7402C423.887 24.8281 423.755 24.8866 423.614 24.9106C423.564 24.9106 423.516 24.961 423.417 24.961C423.363 24.9585 423.31 24.9765 423.268 25.0113H421.434V22.5112Z" fill="white"/>
<path id="Rectangle 5" d="M427.433 37.8223H389.768V41.3635H427.433V37.8223Z" fill="white"/>
</g>
</g>
</g>
</svg>
