<svg width="282" height="332" viewBox="0 0 282 332" fill="none" xmlns="http://www.w3.org/2000/svg">
    <path d="M38.0189 266.294L140.877 331.031L243.734 266.294C255.364 258.997 264.957 248.841 271.608 236.781C278.26 224.721 281.751 211.155 281.753 197.362V62.9056C281.75 46.2242 275.165 30.227 263.446 18.4308C251.727 6.63469 235.834 0.00526079 219.26 0L62.4995 0C45.9247 0.00350731 30.0298 6.63217 18.3097 18.4285C6.58957 30.2248 0.0036532 46.2231 0.000168542 62.9056V197.117C-0.0278924 210.95 3.44843 224.561 10.1008 236.666C16.7531 248.77 26.3619 258.967 38.0189 266.294ZM7.78792 62.9056C7.79391 55.6569 9.22128 48.4808 11.988 41.7884C14.7548 35.096 18.8065 29.019 23.9111 23.9057C29.0158 18.7925 35.073 14.7435 41.7353 11.9909C48.3977 9.23826 55.5342 7.83613 62.736 7.86485H219.503C234.076 7.8666 248.051 13.694 258.356 24.0653C268.66 34.4367 274.45 48.5028 274.451 63.1702V197.362C274.485 209.847 271.344 222.133 265.328 233.051C259.312 243.969 250.62 253.156 240.08 259.738L141.126 321.857L42.1723 259.738C31.6022 253.124 22.8929 243.893 16.8757 232.927C10.8585 221.96 7.73424 209.625 7.80115 197.098L7.78792 62.9056Z" fill="white"/>
    <path d="M82.287 171.67H130.722V267.861H151.292V171.67H199.991V241.124H220.305V81.5121H199.991V150.966H151.292V59.2339H220.298V38.7879H61.7169V59.2339H130.722V150.966H82.287V81.5121H61.7169V241.124H82.287V171.67Z" fill="white"/>
</svg>
